<svg width="100" height="68" viewBox="0 0 100 68" fill="none" xmlns="http://www.w3.org/2000/svg">
  <path fill="#fff" d="M0 0h100v68H0z"/>
  <path fill-rule="evenodd" clip-rule="evenodd" d="M23.001 38.999a.38.38 0 01-.277-.12l-5.604-5.603a.38.38 0 01-.12-.277.38.38 0 01.12-.276l5.604-5.602a.38.38 0 01.277-.121.38.38 0 01.277.12l.601.602a.38.38 0 01.121.276.38.38 0 01-.12.277L19.152 33l4.726 4.725c.08.08.121.172.121.277a.38.38 0 01-.12.276l-.602.602A.38.38 0 0123 39v-.001zm53.998-11.998a.38.38 0 01.276.12l5.604 5.603c.08.08.121.173.121.277a.38.38 0 01-.12.276l-5.605 5.602A.38.38 0 0177 39a.38.38 0 01-.277-.12l-.601-.602a.38.38 0 01-.121-.276.38.38 0 01.12-.277L80.848 33l-4.726-4.725a.38.38 0 01-.121-.277.38.38 0 01.12-.276l.602-.602A.38.38 0 0177 27v.001z" fill="#9B5C8F"/>
  <path d="M32.75 28.796h3.068l2.119 6.006h.026l2.132-6.006h3.055V38h-2.028v-7.059h-.026L38.678 38h-1.547l-2.327-7.059h-.026V38H32.75v-9.204zm12.354 0h6.253v1.872h-4.225v1.716h3.991v1.872h-3.99v1.872h4.458V38h-6.487v-9.204zm9.892 1.794H52.37v-1.794h7.28v1.794h-2.626V38h-2.028v-7.41zm7.52-1.794h1.676L68.196 38h-2.288l-.793-1.95H61.54L60.773 38h-2.236l3.978-9.204zm.78 2.678l-1.119 2.86h2.25l-1.132-2.86z" fill="#9B5C8F"/>
</svg>
