<svg width="100" height="68" viewBox="0 0 100 68" fill="none" xmlns="http://www.w3.org/2000/svg">
  <g clip-path="url(#clip0)">
    <path fill="#fff" d="M0 0h100v68H0z"/>
    <path d="M28 24c0-1.657 1.343-3 2.994-3h41.012A3 3 0 0175 24v19.945H28V24z" fill="url(#paint0_linear)" fill-opacity=".15" stroke="#9B5C8F"/>
    <path opacity=".129" d="M-22 24c0-1.657 1.343-3 2.994-3h41.012A3 3 0 0125 24v19.945h-47V24zm100 0c0-1.657 1.343-3 2.994-3h41.012A3 3 0 01125 24v19.945H78V24z" fill="#fff" fill-opacity=".034" stroke="#9B5C8F"/>
    <path fill-rule="evenodd" clip-rule="evenodd" d="M61 40.12c0-1.347-.126.333-.435-.943-.226-.88-.882-1.573-1.739-1.573-.517 0-.987.249-1.304.646v-.168c0-1.056-.779-1.912-1.74-1.912-.96 0-1.738.856-1.738 1.912v-.956c0-1.056-.779-1.912-1.74-1.912-.96 0-1.739.856-1.739 1.912v-6.214c0-1.056-.778-1.912-1.739-1.912-.96 0-1.74.856-1.74 1.912v10.904c0 .53-.39.956-.869.956a.81.81 0 01-.239-.038l-2.456-1.1a1.61 1.61 0 00-.783-.206c-.96 0-1.739.856-1.739 1.913 0 .793.444 1.477 1.07 1.768 2.821 1.602 5.082 3.566 6.665 6.836h9.935C60.17 49.277 61 43.179 61 40.12z" fill="#9B5C8F"/>
  </g>
  <defs>
    <linearGradient id="paint0_linear" x1="28" y1="21" x2="46.836" y2="60.901" gradientUnits="userSpaceOnUse">
      <stop stop-color="#9B5C8F" stop-opacity=".208"/>
      <stop offset="1" stop-color="#9B5C8F"/>
    </linearGradient>
    <clipPath id="clip0">
      <path fill="#fff" d="M0 0h100v68H0z"/>
    </clipPath>
  </defs>
</svg>
