<svg width="100" height="68" viewBox="0 0 100 68" fill="none" xmlns="http://www.w3.org/2000/svg">
  <path fill="#fff" d="M0 0h100v68H0z"/>
  <path d="M60.888 15c-6.792 0-12.112 2.82-12.112 6.419v1.1c-1.48.088-2.89.442-4.182 1.017-1.863-.615-4.08-.968-6.482-.968-6.792 0-12.112 2.82-12.112 6.419v11.316c0 3.6 5.32 6.418 12.112 6.418 2.442 0 4.693-.364 6.576-.998 1.476.642 3.103.998 4.813.998 1.709 0 3.336-.356 4.812-.998 1.883.634 4.134.998 6.575.998C67.68 46.721 73 43.902 73 40.303V21.419C73 17.819 67.68 15 60.888 15zm-7.728 3.04c2.052-1.025 4.797-1.59 7.728-1.59 2.932 0 5.676.565 7.728 1.59 1.865.933 2.935 2.164 2.935 3.379 0 1.214-1.07 2.445-2.935 3.378-2.052 1.026-4.796 1.59-7.728 1.59a21.79 21.79 0 01-2.65-.159 12.085 12.085 0 00-7.714-3.688 2.38 2.38 0 01-.299-1.121c0-1.215 1.07-2.446 2.935-3.378zM49.5 45.273a10.643 10.643 0 01-4.745-1.116 10.71 10.71 0 01-3.547-2.851 10.688 10.688 0 01-1.921-3.632 10.59 10.59 0 01-.428-3.73c.238-3.86 2.54-7.172 5.815-8.84a10.6 10.6 0 015.551-1.132 10.615 10.615 0 017.301 3.625 10.7 10.7 0 012.192 3.96 10.604 10.604 0 01.446 3.053 10.664 10.664 0 01-.99 4.483 10.694 10.694 0 01-2.588 3.479 10.704 10.704 0 01-4.25 2.318 10.65 10.65 0 01-2.835.383zM30.385 25.609c2.052-1.026 4.797-1.591 7.728-1.591 1.647 0 3.234.178 4.673.516a12.116 12.116 0 00-5.379 9.41c-2.664-.083-5.135-.636-7.022-1.58-1.865-.932-2.934-2.163-2.934-3.377 0-1.215 1.07-2.446 2.934-3.378zm7.03 9.786c.051.792.178 1.563.375 2.307-2.81-.04-5.428-.601-7.405-1.59-1.865-.932-2.935-2.163-2.935-3.377v-.657c1.928 1.897 5.605 3.192 9.965 3.317zm.698 3.758h.161c.335.824.758 1.603 1.257 2.326a22.1 22.1 0 01-1.418.045c-2.93 0-5.675-.565-7.728-1.592C28.52 39 27.45 37.77 27.45 36.555v-.729c2.03 1.998 6 3.328 10.663 3.328zm0 6.119c-2.93 0-5.675-.565-7.728-1.591-1.865-.933-2.935-2.164-2.935-3.378v-.657c2.03 1.998 6 3.328 10.663 3.328.864 0 1.704-.046 2.512-.133a12.196 12.196 0 002.24 1.896c-1.46.35-3.075.535-4.752.535zm33.439-4.97c0 1.215-1.07 2.446-2.935 3.379-2.052 1.026-4.796 1.591-7.728 1.591-1.676 0-3.291-.185-4.751-.535a12.217 12.217 0 002.24-1.896c.808.087 1.648.133 2.511.133 4.663 0 8.633-1.33 10.663-3.328v.657zm0-3.747c0 1.214-1.07 2.445-2.935 3.377-2.052 1.027-4.796 1.592-7.728 1.592-.478 0-.951-.015-1.417-.045.499-.723.922-1.502 1.257-2.326h.16c4.663 0 8.633-1.329 10.663-3.327v.729zm0-3.82c0 1.214-1.07 2.445-2.935 3.378-1.976.988-4.595 1.548-7.404 1.589.197-.744.324-1.515.375-2.307 4.359-.126 8.036-1.42 9.964-3.317v.657zm0-3.748c0 1.214-1.07 2.445-2.935 3.378-1.886.943-4.358 1.496-7.021 1.58a12.04 12.04 0 00-.364-2.362c4.514-.063 8.34-1.376 10.32-3.325v.729zm0-3.82c0 1.214-1.07 2.445-2.935 3.378-2.052 1.026-4.796 1.591-7.728 1.591h-.131a12.09 12.09 0 00-1.246-2.338c.452.026.91.04 1.377.04 4.663 0 8.633-1.33 10.663-3.328v.657z" fill="#9B5C8F"/>
  <path d="M54.285 37.857c0-.48-.103-.942-.292-1.369-.55-1.24-1.824-2.191-3.394-2.5a5.586 5.586 0 00-.374-.06v-5.032c1.492.251 2.611 1.26 2.611 2.463a.725.725 0 001.45 0c0-.28-.036-.553-.103-.817-.406-1.608-1.986-2.86-3.958-3.11v-.945a.725.725 0 00-1.45 0v.944a5.561 5.561 0 00-.51.09c-2.041.453-3.55 2.002-3.55 3.838 0 .485.106.95.298 1.379.2.447.495.856.864 1.211.457.44 1.028.796 1.676 1.037.384.143.793.245 1.223.3v5.032a4.152 4.152 0 01-.598-.147 3.373 3.373 0 01-1.351-.808c-.416-.42-.662-.942-.662-1.507a.724.724 0 10-1.45 0 3.536 3.536 0 00.82 2.222c.326.398.735.743 1.207 1.02.468.276.997.484 1.567.605.153.033.309.06.467.08v.946a.722.722 0 001.268.478.72.72 0 00.181-.478v-.946a5.26 5.26 0 002.034-.684 4.481 4.481 0 001.206-1.02 3.536 3.536 0 00.82-2.222zM48.52 33.77a3.723 3.723 0 01-1.252-.539c-.439-.3-.772-.685-.952-1.121a1.957 1.957 0 01-.151-.751c0-1.203 1.118-2.211 2.608-2.463h.003v4.925a4.031 4.031 0 01-.256-.051zm4.316 4.086c0 .564-.246 1.086-.662 1.506a3.372 3.372 0 01-1.35.809 4.082 4.082 0 01-.598.147v-4.926c1.365.23 2.417 1.095 2.586 2.164a2 2 0 01.024.3z" fill="#9B5C8F" fill-opacity=".5"/>
</svg>
