<svg width="100" height="68" viewBox="0 0 100 68" fill="none" xmlns="http://www.w3.org/2000/svg">
  <g clip-path="url(#clip0)">
    <path fill="#fff" d="M0 0h100v68H0z"/>
    <path opacity=".25" d="M56.724 45.332H26.252v4.147h30.472v-4.147zm5.616-9.097H26.252v4.147H62.34v-4.147z" fill="#9B5C8F"/>
    <path d="M32 17l2.398 4.405 5.21.777-3.728 3.5.822 4.886L32 28.325l-4.702 2.243.822-4.886-3.729-3.5 5.21-.776L32 17zm18 0l2.398 4.405 5.21.777-3.728 3.5.822 4.886L50 28.325l-4.702 2.243.822-4.886-3.728-3.5 5.21-.776L50 17zm19 0l2.398 4.405 5.21.777-3.728 3.5.822 4.886L69 28.325l-4.702 2.243.822-4.886-3.729-3.5 5.21-.776L69 17z" fill="#9B5C8F"/>
  </g>
  <defs>
    <clipPath id="clip0">
      <path fill="#fff" d="M0 0h100v68H0z"/>
    </clipPath>
  </defs>
</svg>
