<svg width="100" height="68" viewBox="0 0 100 68" fill="none" xmlns="http://www.w3.org/2000/svg">
  <path fill="#fff" d="M0 0h100v68H0z"/>
  <path stroke="#9B5C8F" stroke-opacity=".18" d="M7 21h39v23H7z"/>
  <path d="M28.105 36.105h-.72v-6.18l-1.27 1.12-.45-.54 1.8-1.48h.64v7.08zm10.883-3.925h2.475v.66h-2.475v2.474h-.66V32.84h-2.475v-.66h2.475v-2.475h.66v2.475zm-24 0h2.475v.66h-5.61v-.66h3.135z" fill="#9B5C8F"/>
  <rect x="54" y="21" width="39" height="23" rx="2" fill="#9B5C8F" stroke="#9B5C8F"/>
  <path fill-rule="evenodd" clip-rule="evenodd" d="M70.941 37.5c0 .644-.553 1.167-1.235 1.167s-1.235-.523-1.235-1.167c0-.645.553-1.167 1.235-1.167s1.235.523 1.235 1.167zm8.235 0c0 .644-.553 1.167-1.235 1.167s-1.235-.523-1.235-1.167c0-.645.553-1.167 1.235-1.167s1.235.523 1.235 1.167zm0-5.056v-4.666h-9.882c0-.43-.368-.778-.823-.778H66v.778h1.647l.618 5.007A1.522 1.522 0 0067.648 34c0 .859.737 1.556 1.647 1.556h9.882v-.778h-9.882c-.455 0-.823-.348-.823-.778v-.008l10.705-1.548z" fill="#fff"/>
</svg>
