<svg width="100" height="68" viewBox="0 0 100 68" fill="none" xmlns="http://www.w3.org/2000/svg">
  <path fill="#fff" d="M0 0h100v68H0z"/>
  <path d="M19.5 53.5v-43h71v43h-71z" fill="url(#paint0_linear)" fill-opacity=".15" stroke="#9B5C8F"/>
  <path d="M19.5 53v.5h68v3h-71v-43h3V53z" fill="url(#paint1_linear)" fill-opacity=".15" stroke="#9B5C8F"/>
  <path d="M16.5 56v.5h68v3h-71v-43h3V56z" fill="url(#paint2_linear)" fill-opacity=".15" stroke="#9B5C8F"/>
  <path opacity=".142" fill-rule="evenodd" clip-rule="evenodd" d="M59.182 37.074s3.323-3.241 4.047-7.6c1.948 0 3.15-4.634 1.203-6.264.082-1.715 2.504-13.47-9.763-13.47-12.266 0-9.845 11.755-9.763 13.47-1.947 1.63-.744 6.264 1.204 6.264.723 4.359 4.048 7.6 4.048 7.6s-.026 3.065-1.157 3.24c-3.644.572-17.249 6.483-17.249 12.965h45.834c0-6.482-13.605-12.393-17.247-12.964-1.13-.176-1.157-3.241-1.157-3.241z" fill="#9B5C8F"/>
  <defs>
    <linearGradient id="paint0_linear" x1="19" y1="10" x2="59.981" y2="79.35" gradientUnits="userSpaceOnUse">
      <stop stop-color="#9B5C8F" stop-opacity=".208"/>
      <stop offset="1" stop-color="#9B5C8F"/>
    </linearGradient>
    <linearGradient id="paint1_linear" x1="16" y1="13" x2="56.981" y2="82.35" gradientUnits="userSpaceOnUse">
      <stop stop-color="#9B5C8F" stop-opacity=".208"/>
      <stop offset="1" stop-color="#9B5C8F"/>
    </linearGradient>
    <linearGradient id="paint2_linear" x1="13" y1="16" x2="53.981" y2="85.35" gradientUnits="userSpaceOnUse">
      <stop stop-color="#9B5C8F" stop-opacity=".208"/>
      <stop offset="1" stop-color="#9B5C8F"/>
    </linearGradient>
  </defs>
</svg>
