<svg width="100" height="68" viewBox="0 0 100 68" fill="none" xmlns="http://www.w3.org/2000/svg">
  <g clip-path="url(#clip0)">
    <path fill="#fff" d="M0 0h100v68H0z"/>
    <mask id="a" maskUnits="userSpaceOnUse" x="17" y="12" width="32" height="45">
      <path d="M48.465 12H17v45h31.465V12z" fill="#fff"/>
    </mask>
    <g mask="url(#a)">
      <path d="M17.5 56.5v-44h30.465v44H17.5z" fill="url(#paint0_linear)" fill-opacity=".15" stroke="#9B5C8F"/>
    </g>
    <mask id="b" maskUnits="userSpaceOnUse" x="17" y="12" width="32" height="32">
      <path d="M48.465 12.065H17v31.704h31.465V12.065z" fill="#fff"/>
    </mask>
    <g mask="url(#b)" fill="#9B5C8F">
      <path opacity=".142" d="M48.465 12.065H17v31.704h31.465V12.065z"/>
      <path opacity=".142" fill-rule="evenodd" clip-rule="evenodd" d="M34.942 36.002s1.648-1.554 2.007-3.643c.966 0 1.562-2.221.596-3.002.041-.823 1.242-6.457-4.84-6.457-6.084 0-4.883 5.634-4.842 6.457-.966.78-.37 3.002.597 3.002.358 2.09 2.007 3.643 2.007 3.643s-.013 1.469-.574 1.553c-1.806.274-8.553 3.107-8.553 6.214h22.729c0-3.107-6.747-5.94-8.553-6.214-.56-.084-.574-1.553-.574-1.553z"/>
    </g>
    <g opacity=".6">
      <path opacity=".8" d="M36.034 48.042H29.58a1.818 1.818 0 100 3.636h6.454a1.818 1.818 0 000-3.636z" fill="#9B5C8F"/>
    </g>
    <mask id="c" maskUnits="userSpaceOnUse" x="87" y="12" width="32" height="45">
      <path d="M118.465 12H87v45h31.465V12z" fill="#fff"/>
    </mask>
    <g mask="url(#c)">
      <path d="M87.5 56.5v-44h30.465v44H87.5z" fill="url(#paint1_linear)" fill-opacity=".15" stroke="#9B5C8F"/>
    </g>
    <mask id="d" maskUnits="userSpaceOnUse" x="87" y="12" width="32" height="32">
      <path d="M118.465 12.065H87v31.704h31.465V12.065z" fill="#fff"/>
    </mask>
    <g mask="url(#d)" fill="#9B5C8F">
      <path opacity=".142" d="M118.465 12.065H87v31.704h31.465V12.065z"/>
      <path opacity=".142" fill-rule="evenodd" clip-rule="evenodd" d="M104.942 36.002s1.648-1.554 2.007-3.643c.966 0 1.562-2.221.596-3.002.041-.823 1.242-6.457-4.841-6.457s-4.882 5.634-4.841 6.457c-.966.78-.37 3.002.597 3.002.359 2.09 2.007 3.643 2.007 3.643s-.013 1.469-.574 1.553c-1.806.274-8.553 3.107-8.553 6.214h22.729c0-3.107-6.747-5.94-8.553-6.214-.561-.084-.574-1.553-.574-1.553z"/>
    </g>
    <path opacity=".6" d="M106.034 48.042H99.58a1.818 1.818 0 100 3.636h6.454a1.818 1.818 0 100-3.636z" fill="#9B5C8F"/>
    <path opacity=".333" fill-rule="evenodd" clip-rule="evenodd" d="M5.75 15.146H4.174c.099 1.297.512 2.313 1.24 3.048.73.734 1.711 1.164 2.946 1.287V21h1.02v-1.519a5.625 5.625 0 001.63-.37c.494-.198.92-.467 1.278-.806.358-.34.64-.744.843-1.213.204-.47.306-1.007.306-1.612 0-.568-.108-1.056-.324-1.463a3.56 3.56 0 00-.788-1.02 4.016 4.016 0 00-.963-.638 5.04 5.04 0 00-.87-.325l-1.112-.296V7.181c1.136.21 1.828.926 2.075 2.149h1.574c-.247-1.087-.667-1.939-1.26-2.556-.592-.618-1.389-.988-2.389-1.112V4.421H8.361v1.223a4.584 4.584 0 00-1.491.352 3.782 3.782 0 00-1.204.805c-.34.34-.608.741-.806 1.204a3.855 3.855 0 00-.296 1.529c0 .543.074 1.006.222 1.389.148.383.38.707.695.973.315.265.71.493 1.185.685.476.191 1.04.367 1.695.528v4.909c-.74-.124-1.355-.426-1.843-.908-.488-.482-.744-1.136-.769-1.964zm3.63 2.872v-4.65c.333.099.648.207.945.324.296.118.55.263.76.436.21.172.376.38.5.62.123.241.185.54.185.899 0 .395-.059.737-.176 1.028a1.91 1.91 0 01-.5.722 2.2 2.2 0 01-.76.435 3.79 3.79 0 01-.954.186zM8.361 7.126v4.334a6.86 6.86 0 01-.852-.296 2.873 2.873 0 01-.676-.399 1.568 1.568 0 01-.445-.574 1.964 1.964 0 01-.157-.824c0-.704.207-1.238.62-1.602.414-.365.917-.578 1.51-.64z" fill="#9B5C8F" fill-opacity=".532"/>
    <path d="M63.552 20.514l-5.317 5.316a.8.8 0 00-.235.57.8.8 0 00.235.57l.483.482a.815.815 0 001.146 0l3.108-3.101v9.854c0 .444.348.795.793.795h.682c.445 0 .828-.351.828-.795v-9.89l3.125 3.137a.794.794 0 001.131 0l.482-.482a.8.8 0 00.234-.57.8.8 0 00-.235-.57l-5.317-5.316a.8.8 0 00-.571-.236.8.8 0 00-.572.236z" fill="#9B5C8F"/>
    <path d="M70.56 50.76l5.21-5.417a.832.832 0 00.23-.58.832.832 0 00-.23-.58l-.473-.493a.769.769 0 00-.559-.24.784.784 0 00-.564.24l-3.046 3.16V36.81c0-.452-.34-.81-.776-.81h-.669a.815.815 0 00-.81.81v10.076L65.81 43.69a.758.758 0 00-1.109 0l-.471.492a.831.831 0 00-.23.58c0 .22.082.427.23.581l5.21 5.417A.77.77 0 0070 51a.768.768 0 00.56-.24z" fill="#9B5C8F" opacity=".2"/>
  </g>
  <defs>
    <linearGradient id="paint0_linear" x1="17" y1="12" x2="62.438" y2="44.856" gradientUnits="userSpaceOnUse">
      <stop stop-color="#9B5C8F" stop-opacity=".208"/>
      <stop offset="1" stop-color="#9B5C8F"/>
    </linearGradient>
    <linearGradient id="paint1_linear" x1="87" y1="12" x2="132.438" y2="44.856" gradientUnits="userSpaceOnUse">
      <stop stop-color="#9B5C8F" stop-opacity=".208"/>
      <stop offset="1" stop-color="#9B5C8F"/>
    </linearGradient>
    <clipPath id="clip0">
      <path fill="#fff" d="M0 0h100v68H0z"/>
    </clipPath>
  </defs>
</svg>
