<svg xmlns="http://www.w3.org/2000/svg" width="70" height="51" fill="none" viewBox="0 0 70 51">
    <mask id="a" width="70" height="51" x="0" y="0" maskUnits="userSpaceOnUse">
        <path fill="#fff" d="M66 .4529H4c-2.2091 0-4 1.7908-4 4v42c0 2.2091 1.7909 4 4 4h62c2.2091 0 4-1.7909 4-4v-42c0-2.2092-1.7909-4-4-4z"/>
    </mask>
    <g mask="url(#a)">
        <path fill="#00A0D2" fill-opacity=".01" stroke="#3498DB" stroke-width="2" d="M66 .4529H4c-2.2091 0-4 1.7908-4 4v42c0 2.2091 1.7909 4 4 4h62c2.2091 0 4-1.7909 4-4v-42c0-2.2092-1.7909-4-4-4z"/>
    </g>
    <circle cx="15.5" cy="33.5" r="8" stroke="#3498DB"/>
    <circle cx="15.5" cy="33.5" r="6.5" fill="#3498DB" fill-opacity=".25"/>
    <circle cx="55.5" cy="33.5" r="8" stroke="#3498DB"/>
    <circle cx="55.5" cy="33.5" r="6.5" fill="#3498DB" fill-opacity=".25"/>
    <circle cx="35.5" cy="33.5" r="8" stroke="#3498DB"/>
    <circle cx="35.5" cy="33.5" r="6.5" fill="#3498DB" fill-opacity=".25"/>
    <path fill="#3498DB" fill-opacity=".1279" stroke="#3498DB" d="M7.5 10.5h20.4138v4.9586H7.5V10.5zM37.5 10.5h13v5h-13v-5z"/>
    <path fill="#3498DB" d="M32.0808 14.312a.7498.7498 0 01.056-.288.7003.7003 0 01.152-.232.7276.7276 0 01.24-.16.7498.7498 0 01.288-.056.7498.7498 0 01.288.056.6456.6456 0 01.232.16.6456.6456 0 01.16.232.7498.7498 0 01.056.288.7498.7498 0 01-.056.288.7276.7276 0 01-.16.24.7003.7003 0 01-.232.152.7498.7498 0 01-.288.056.7498.7498 0 01-.288-.056.7974.7974 0 01-.24-.152.7974.7974 0 01-.152-.24.7498.7498 0 01-.056-.288zm0-2.56a.7498.7498 0 01.056-.288.7003.7003 0 01.152-.232.7276.7276 0 01.24-.16.7498.7498 0 01.288-.056.7498.7498 0 01.288.056.6456.6456 0 01.232.16.6456.6456 0 01.16.232.7498.7498 0 01.056.288.7498.7498 0 01-.056.288.7276.7276 0 01-.16.24.7003.7003 0 01-.232.152.7498.7498 0 01-.288.056.7498.7498 0 01-.288-.056.7974.7974 0 01-.24-.152.7974.7974 0 01-.152-.24.7498.7498 0 01-.056-.288z"/>
</svg>
